<?xml version="1.0" encoding="UTF-8"?>
<!DOCTYPE svg PUBLIC "-//W3C//DTD SVG 1.1//EN" "http://www.w3.org/Graphics/SVG/1.1/DTD/svg11.dtd">
<!-- Creator: CorelDRAW -->
<svg xmlns="http://www.w3.org/2000/svg" xml:space="preserve" width="100.322mm" height="45.6946mm" version="1.1" style="shape-rendering:geometricPrecision; text-rendering:geometricPrecision; image-rendering:optimizeQuality; fill-rule:evenodd; clip-rule:evenodd"
viewBox="0 0 9841.5 4482.6"
 xmlns:xlink="http://www.w3.org/1999/xlink"
 xmlns:xodm="http://www.corel.com/coreldraw/odm/2003">
 <defs>
  <style type="text/css">
   <![CDATA[
    .str0 {stroke:#373435;stroke-width:207.65;stroke-miterlimit:22.9256}
    .str1 {stroke:#373435;stroke-width:346.07;stroke-linecap:round;stroke-linejoin:round;stroke-miterlimit:22.9256}
    .str2 {stroke:#373435;stroke-width:346.07;stroke-linecap:square;stroke-linejoin:round;stroke-miterlimit:22.9256}
    .fil0 {fill:none}
    .fil1 {fill:#373435}
   ]]>
  </style>
 </defs>
 <g id="Camada_x0020_1">
  <metadata id="CorelCorpID_0Corel-Layer"/>
  <g id="_2434350003712">
   <path class="fil0 str0" d="M3131.07 1384.97l-2502.92 0c-288.38,0 -524.32,-258.48 -524.32,-574.41 0,-315.93 235.94,-574.41 524.32,-574.41l2502.92 0"/>
   <line class="fil0 str1" x1="574.73" y1="843.07" x2="2276.31" y2= "843.07" />
   <line class="fil0 str2" x1="1180.18" y1="843.07" x2="2729.41" y2= "843.07" />
  </g>
  <g id="_2434350003808">
   <path class="fil0 str0" d="M3131.07 4378.77l-2502.92 0c-288.38,0 -524.32,-258.48 -524.32,-574.41 0,-315.93 235.94,-574.41 524.32,-574.41l2502.92 0"/>
   <line class="fil0 str1" x1="574.73" y1="3836.87" x2="2276.31" y2= "3836.87" />
   <line class="fil0 str2" x1="1180.18" y1="3836.87" x2="2729.41" y2= "3836.87" />
  </g>
  <g id="_2434350004384">
   <path class="fil0 str0" d="M191.73 2895.97l2502.92 0c288.38,0 524.32,-258.48 524.32,-574.41 0,-315.93 -235.94,-574.41 -524.32,-574.41l-2502.92 0"/>
   <line class="fil0 str1" x1="2748.06" y1="2354.07" x2="1046.48" y2= "2354.07" />
   <line class="fil0 str2" x1="2142.61" y1="2354.07" x2="593.38" y2= "2354.07" />
  </g>
  <rect class="fil1" x="4334.4" y="165.16" width="1926.64" height="1250.8" rx="68.67" ry="68.67"/>
  <rect class="fil1" x="4334.4" y="1597.54" width="1926.64" height="1250.8" rx="68.67" ry="68.67"/>
  <rect class="fil1" x="4334.4" y="3080.34" width="1926.64" height="1250.8" rx="68.67" ry="68.67"/>
  <rect class="fil1" x="3819.86" y="104.64" width="342.96" height="292.52" rx="29.43" ry="29.43"/>
  <rect class="fil1" x="6422.43" y="104.64" width="342.96" height="292.52" rx="29.43" ry="29.43"/>
  <rect class="fil1" x="3819.86" y="639.26" width="342.96" height="292.52" rx="29.43" ry="29.43"/>
  <rect class="fil1" x="6422.43" y="639.26" width="342.96" height="292.52" rx="29.43" ry="29.43"/>
  <rect class="fil1" x="3819.86" y="1093.18" width="342.96" height="292.52" rx="29.43" ry="29.43"/>
  <rect class="fil1" x="6422.43" y="1093.18" width="342.96" height="292.52" rx="29.43" ry="29.43"/>
  <rect class="fil1" x="3819.86" y="1597.53" width="342.96" height="292.52" rx="29.43" ry="29.43"/>
  <rect class="fil1" x="6422.43" y="1597.53" width="342.96" height="292.52" rx="29.43" ry="29.43"/>
  <rect class="fil1" x="3819.86" y="2101.89" width="342.96" height="292.52" rx="29.43" ry="29.43"/>
  <rect class="fil1" x="6422.43" y="2101.89" width="342.96" height="292.52" rx="29.43" ry="29.43"/>
  <rect class="fil1" x="3819.86" y="2575.98" width="342.96" height="292.52" rx="29.43" ry="29.43"/>
  <rect class="fil1" x="6422.43" y="2575.98" width="342.96" height="292.52" rx="29.43" ry="29.43"/>
  <rect class="fil1" x="3819.86" y="3070.24" width="342.96" height="292.52" rx="29.43" ry="29.43"/>
  <rect class="fil1" x="6422.43" y="3070.24" width="342.96" height="292.52" rx="29.43" ry="29.43"/>
  <rect class="fil1" x="3819.86" y="3564.52" width="342.96" height="292.52" rx="29.43" ry="29.43"/>
  <rect class="fil1" x="6422.43" y="3564.52" width="342.96" height="292.52" rx="29.43" ry="29.43"/>
  <rect class="fil1" x="3819.86" y="4068.87" width="342.96" height="292.52" rx="29.43" ry="29.43"/>
  <rect class="fil1" x="6422.43" y="4068.87" width="342.96" height="292.52" rx="29.43" ry="29.43"/>
  <path class="fil1" d="M7241.46 3388.54l2580.79 0 0 -1999.63 0 -9.85 -0.13 0c-5.33,-380.16 -317.88,-689.52 -699.25,-689.52l-2.85 0c17.85,-49.8 27.48,-102.75 27.48,-157.63 0,-293.76 -275.63,-531.91 -615.64,-531.91 -340.02,0 -615.64,238.16 -615.64,531.91 0,54.88 9.62,107.82 27.48,157.63l-2.86 0c-381.36,0 -693.92,309.36 -699.25,689.52l-0.12 0 0 9.85 0 1999.63zm1290.4 -3163.01c195.85,0 354.61,137.17 354.61,306.38 0,20.22 -2.3,40 -6.62,59.11l-695.97 0c-4.33,-19.12 -6.62,-38.9 -6.62,-59.11 0,-169.21 158.75,-306.38 354.61,-306.38zm246.26 1104.27c89.4,0 162.53,73.13 162.53,162.53l0 1408.61c0,89.4 -73.13,162.53 -162.53,162.53 -89.4,0 -162.53,-73.13 -162.53,-162.53l0 -1408.61c0,-89.4 73.13,-162.53 162.53,-162.53zm-556.55 0c89.4,0 162.52,73.13 162.52,162.53l0 1408.61c0,89.4 -73.12,162.53 -162.52,162.53 -89.4,0 -162.53,-73.13 -162.53,-162.53l0 -1408.61c0,-89.4 73.13,-162.53 162.53,-162.53z"/>
  <path class="fil1" d="M9841.5 3621.9c-10.41,280.06 -210.03,505.42 -452.65,505.42l-1694.27 0c-242.62,0 -442.24,-225.35 -452.65,-505.42l2599.57 0z"/>
  <g id="_2434349944000">
   <rect class="fil1" x="7693.59" y="3965.77" width="386.13" height="494.48" rx="98.82" ry="114.96"/>
   <rect class="fil1" x="9003.69" y="3965.77" width="386.13" height="494.48" rx="98.82" ry="114.96"/>
  </g>
 </g>
</svg>
